<svg xmlns="http://www.w3.org/2000/svg" version="1.1" viewBox="278.528 231.424 462.848 561.152" style="max-height: 500px" width="462.848" height="561.152">
<path transform="translate(0,0)" fill="#FEFEFE" d="M0 0 C337.92 0 675.84 0 1024 0 C1024 337.92 1024 675.84 1024 1024 C686.08 1024 348.16 1024 0 1024 C0 686.08 0 348.16 0 0 Z"/>
<path transform="translate(386.4361267089844,276.89752197265625)" fill="#FEFEFE" d="M0 0 C1.25328146 0.00111243 2.50656291 0.00222486 3.79782259 0.003371 C7.26493437 0.00663435 10.73200341 0.01625377 14.19909906 0.02697825 C17.9428717 0.0374756 21.6866525 0.04214611 25.43043518 0.0476532 C33.61013332 0.06084995 41.78980102 0.08171518 49.96947813 0.10421848 C55.07879733 0.1182543 60.18811956 0.13075323 65.29744339 0.14296722 C79.45029679 0.17707266 93.60314248 0.21304677 107.75597191 0.25606155 C108.66101866 0.2588096 109.56606541 0.26155764 110.49853782 0.26438896 C111.85929761 0.26852397 111.85929761 0.26852397 113.24754751 0.27274251 C115.08573682 0.27832783 116.92392615 0.28391024 118.76211548 0.28948975 C119.67391491 0.29225893 120.58571434 0.29502812 121.52514406 0.29788122 C136.30431855 0.34240817 151.08348813 0.37346136 165.86270694 0.39868954 C181.04472705 0.42479535 196.22668639 0.46205066 211.40865195 0.51050925 C219.92947467 0.53744923 228.45025018 0.55962721 236.9711113 0.56952667 C244.22516049 0.57801009 251.47909373 0.59670284 258.73307918 0.62863049 C262.43241714 0.64460988 266.13160463 0.65582513 269.8309803 0.65402794 C273.8454191 0.65221633 277.85940889 0.67352961 281.8737793 0.69702148 C283.03731001 0.69285603 284.20084073 0.68869057 285.39962995 0.68439889 C299.05630589 0.81142229 299.05630589 0.81142229 303.56387329 4.10247803 C306.14439126 8.88763122 306.93936377 12.50570451 306.94419003 17.994277 C306.94884994 18.65433773 306.95350986 19.31439846 306.95831099 19.99446103 C306.97022647 22.19802528 306.96087931 24.40096898 306.95155334 26.60453796 C306.95572784 28.20372741 306.961206 29.8029139 306.96787316 31.4020949 C306.98233248 35.79066095 306.97808143 40.17903928 306.97070634 44.56761563 C306.9659779 49.30337547 306.97848202 54.03909452 306.98872375 58.77484131 C307.0059264 68.05239434 307.00674831 77.32987968 307.00151085 86.60744452 C306.99746881 94.15243767 306.99891313 101.69741083 307.00425911 109.24240303 C307.00500753 110.31645056 307.00575595 111.39049808 307.00652706 112.4970925 C307.00805856 114.67914307 307.00959691 116.86119363 307.01114202 119.04324419 C307.02487365 139.51249758 307.01942587 159.98171277 307.00795681 180.45096529 C306.99803503 199.15711017 307.01094568 217.86315597 307.034891 236.56928556 C307.05930748 255.78884564 307.06888291 275.00835963 307.06223828 294.2279349 C307.05875027 305.01316586 307.06094989 315.79832075 307.0784893 326.58353996 C307.09324361 335.77010304 307.09380518 344.95653654 307.07641839 354.14309715 C307.06793046 358.82560023 307.0657043 363.50787216 307.08106995 368.19036293 C307.09499441 372.48713666 307.09005523 376.78348296 307.07083071 381.08023245 C307.06709383 382.62471099 307.06992499 384.16922442 307.08044236 385.71367168 C307.16576696 399.21663126 305.26833598 412.48891201 298.75137329 424.53997803 C298.23208252 425.53396606 298.23208252 425.53396606 297.70230103 426.54803467 C294.85186842 431.86384716 291.63840786 436.63782844 287.56387329 441.10247803 C286.87551392 441.85915771 286.18715454 442.6158374 285.47793579 443.39544678 C278.23491202 450.98156115 270.18152162 456.44246675 260.93887329 461.28997803 C260.34904663 461.61103516 259.75921997 461.93209229 259.15151978 462.26287842 C243.59795233 470.09530454 227.15609501 469.68564771 210.17810857 469.61071765 C206.6288182 469.59948846 203.07959025 469.61158884 199.53030396 469.62055969 C192.60181312 469.63440912 185.67350596 469.62700019 178.74502406 469.61188411 C170.66938006 469.5949411 162.59378073 469.5982442 154.51812442 469.60197819 C140.11300831 469.60784046 125.70797996 469.59374396 111.30288696 469.56903076 C97.33215047 469.54506558 83.36153096 469.53804764 69.39077759 469.54852295 C54.15122698 469.55992922 38.9117303 469.56186962 23.67218035 469.54742485 C22.04818929 469.54589907 20.42419822 469.54437872 18.80020714 469.54286385 C18.00127441 469.54210603 17.20234169 469.54134822 16.37919888 469.54056744 C10.75128874 469.53582621 5.12340271 469.53767455 -0.50450706 469.54192924 C-7.35513009 469.54685242 -14.20564254 469.54088572 -21.05624022 469.52103495 C-24.5506088 469.51115859 -28.04480889 469.50606177 -31.53918648 469.51392746 C-35.32465101 469.51985894 -39.1096154 469.50741583 -42.89503479 469.49015808 C-44.55521654 469.49917315 -44.55521654 469.49917315 -46.24893731 469.50837034 C-52.84181625 469.45348189 -56.63957471 468.89903003 -61.43612671 464.10247803 C-61.68222237 462.20094109 -61.68222237 462.20094109 -61.67663574 459.83779907 C-61.67938507 458.94314941 -61.6821344 458.04849976 -61.68496704 457.1267395 C-61.67777649 456.14275177 -61.67058594 455.15876404 -61.66317749 454.1449585 C-61.66346954 453.11078796 -61.6637616 452.07661743 -61.6640625 451.0111084 C-61.66266516 447.58054314 -61.64708488 444.15019301 -61.63143921 440.71966553 C-61.62771052 438.34597899 -61.62486287 435.97229092 -61.62286377 433.59860229 C-61.61521599 427.34155043 -61.59555767 421.08459096 -61.57345581 414.82757568 C-61.55302201 408.44656626 -61.54386734 402.06554196 -61.53378296 395.68450928 C-61.51231287 383.15712604 -61.47854589 370.62980694 -61.43612671 358.10247803 C-59.77837975 357.81042229 -59.77837975 357.81042229 -58.08714294 357.51246643 C-53.91527539 356.77649132 -49.74426352 356.03575782 -45.57347107 355.29371643 C-43.78164142 354.97558042 -41.98959393 354.65866849 -40.1973114 354.34309387 C-0.67967274 347.38150534 36.96904971 335.67996089 72.63369751 317.10443115 C74.65723307 316.05401502 76.6902038 315.02343661 78.72402954 313.99310303 C108.47065589 298.76882737 135.3850677 277.85310308 160.02261353 255.40838623 C161.62883788 253.95091779 163.24156573 252.50055647 164.8631897 251.0602417 C171.02837247 245.57930128 176.93249823 239.88568879 182.75137329 234.03997803 C183.60151001 233.1937085 184.45164673 232.34743896 185.32754517 231.4755249 C189.8133711 226.98277105 194.09794314 222.44786789 198.08462524 217.50311279 C199.56387329 216.10247803 199.56387329 216.10247803 202.56387329 216.10247803 C204.02990723 217.24139404 204.02990723 217.24139404 205.57901001 218.85638428 C206.16326752 219.45700684 206.74752502 220.05762939 207.3494873 220.67645264 C207.97453156 221.33266602 208.59957581 221.98887939 209.24356079 222.66497803 C210.57793447 224.03242099 211.9125783 225.39960036 213.24746704 226.76654053 C215.3476085 228.93503124 217.44354705 231.10734676 219.53408813 233.28509521 C221.55144299 235.38086316 223.58390627 237.46102148 225.61856079 239.53997803 C226.23955658 240.19619141 226.86055237 240.85240479 227.50036621 241.52850342 C230.88838883 245.09321667 230.88838883 245.09321667 235.43545532 246.57513428 C237.53702323 246.30832757 237.53702323 246.30832757 238.56387329 245.10247803 C239.68909861 234.56033476 239.82273472 223.88961812 240.09902954 213.29779053 C240.14251026 211.70229792 240.18610766 210.1068085 240.22981262 208.51132202 C240.36768258 203.4168488 240.49759446 198.32218797 240.62637329 193.22747803 C240.65947853 191.93158501 240.65947853 191.93158501 240.69325256 190.60951233 C241.26941612 168.02502879 241.7679039 145.44522162 241.81387329 122.85247803 C241.82150192 121.31264252 241.82150192 121.31264252 241.82928467 119.74169922 C241.84074837 116.91910053 241.83817535 114.09695262 241.82949829 111.27435303 C241.83544258 110.0536058 241.83544258 110.0536058 241.84150696 108.80819702 C241.96576958 104.49051987 241.96576958 104.49051987 239.56387329 101.10247803 C234.11134407 100.70596976 229.12641601 101.59584653 223.82168579 102.68450928 C222.9651088 102.85446915 222.1085318 103.02442902 221.22599792 103.19953918 C219.36037445 103.57044172 217.49534709 103.94435252 215.63085938 104.32092285 C211.58986909 105.13689245 207.54596184 105.93794703 203.50221252 106.7401123 C201.32665833 107.17185562 199.15125681 107.60436892 196.97599792 108.03759766 C184.65779732 110.48927809 172.32711302 112.87580473 159.99472046 115.25491333 C156.32816582 115.96265504 152.66206177 116.67269461 148.9960022 117.38299561 C146.68924685 117.82880086 144.38244473 118.27436423 142.07559204 118.71966553 C140.43369904 119.03725075 140.43369904 119.03725075 138.75863647 119.36125183 C133.92262752 120.29072691 129.0863161 121.19788446 124.2303772 122.01751709 C123.03732719 122.21935104 123.03732719 122.21935104 121.82017517 122.42526245 C119.7605132 122.76829356 117.69900945 123.10021711 115.63735962 123.43109131 C112.41305851 123.93987849 112.41305851 123.93987849 109.56387329 126.10247803 C108.93735992 128.47857846 108.93735992 128.47857846 109.56387329 131.10247803 C111.46233937 133.64651382 111.46233937 133.64651382 114.06387329 135.97747803 C114.98039673 136.85017334 115.89692017 137.72286865 116.84121704 138.62200928 C119.70642029 141.23234509 122.60481024 143.79260877 125.55215454 146.30950928 C128.67419961 149.09206983 131.57180012 152.08905024 134.48574829 155.08685303 C136.41329633 156.95642969 138.37887761 158.54739101 140.56387329 160.10247803 C130.14706964 182.73584721 107.72878153 204.53942115 88.34902954 219.87591553 C85.87367511 221.85481037 83.47409411 223.89983135 81.08462524 225.980896 C67.31509476 237.90953474 52.27700299 247.9356248 36.56387329 257.10247803 C35.84796021 257.52625732 35.13204712 257.95003662 34.3944397 258.38665771 C11.57821936 271.83959343 -12.87918517 281.18165302 -38.56112671 287.47747803 C-39.57996948 287.72852295 -40.59881226 287.97956787 -41.64852905 288.23822021 C-43.12506958 288.58481689 -43.12506958 288.58481689 -44.63143921 288.93841553 C-45.48753784 289.13999268 -46.34363647 289.34156982 -47.22567749 289.54925537 C-50.20611522 290.06284259 -53.12565244 290.37259739 -56.13677979 290.63705444 C-57.6247321 290.76878524 -57.6247321 290.76878524 -59.14274406 290.90317726 C-59.89956034 290.96894651 -60.65637661 291.03471577 -61.43612671 291.10247803 C-61.52744982 259.05903366 -61.59820289 227.01562644 -61.64038803 194.97208227 C-61.64539063 191.18587608 -61.65056794 187.39967016 -61.65585327 183.61346436 C-61.65690251 182.85972423 -61.65795175 182.10598411 -61.65903279 181.32940338 C-61.6764205 169.13769224 -61.70794913 156.94605683 -61.74473789 144.75439056 C-61.7821929 132.23719481 -61.80437218 119.72003862 -61.81248069 107.20278913 C-61.81795904 99.48390362 -61.8352386 91.7652322 -61.86779258 84.04641262 C-61.89150963 78.11966429 -61.89393506 72.19302481 -61.88855743 66.26622772 C-61.8896556 63.84071093 -61.89758186 61.41518584 -61.91294861 58.98971748 C-61.9329475 55.66956297 -61.92802915 52.35031301 -61.91714478 49.03013611 C-61.92879614 48.07776745 -61.94044751 47.12539878 -61.95245194 46.14417046 C-61.85034408 34.56435595 -57.29198277 24.43565039 -49.47128296 15.97747803 C-35.69581301 2.82476893 -18.27806772 -0.07444968 0 0 Z"/>
<path transform="translate(396.354248046875,234.757080078125)" fill="#010101" d="M0 0 C2.49631805 -0.00107558 4.99263585 -0.00301835 7.48895264 -0.00575256 C13.52704034 -0.0100688 19.56505495 -0.00520309 25.60313161 0.00409774 C32.68964737 0.01460866 39.77615189 0.01440802 46.86267398 0.01392516 C59.55966521 0.01342604 72.25663118 0.02253483 84.95361328 0.03710938 C97.15478985 0.05110682 109.35594418 0.05828365 121.55712891 0.05761719 C122.67834103 0.05755725 122.67834103 0.05755725 123.8222039 0.05749611 C124.56862346 0.05745575 125.31504302 0.0574154 126.08408135 0.05737382 C140.10961862 0.05667411 154.13514675 0.06264058 168.16068101 0.07152704 C172.36198151 0.07406966 176.56328039 0.07546283 180.76458163 0.07585593 C206.94790576 0.07845305 233.13384571 0.09250379 259.31434786 0.51767671 C261.32722598 0.5491173 263.340176 0.57632734 265.35317552 0.59868205 C296.61439436 0.96554747 296.61439436 0.96554747 309.08325195 7.86791992 C309.73737061 8.21419434 310.39148926 8.56046875 311.06542969 8.91723633 C322.75105753 15.36199345 332.29666772 25.53839586 336.80055261 38.24409491 C340.01408061 49.64591178 339.93774599 61.85463535 339.89971924 73.60621643 C339.90203029 75.18913492 339.9052111 76.77205232 339.90917373 78.35496753 C339.91744183 82.65669137 339.91343327 86.95832527 339.90720129 91.26004922 C339.90264477 95.91790937 339.90967628 100.57575489 339.91516113 105.23361206 C339.92402264 114.33913829 339.92214769 123.44463143 339.91633585 132.55015893 C339.91180683 139.95430423 339.91121181 147.3584403 339.91338348 154.76258659 C339.91368995 155.81905127 339.91399642 156.87551594 339.91431217 157.96399469 C339.91495166 160.11061518 339.91560009 162.25723567 339.91625735 164.40385615 C339.92195107 184.50018274 339.91541766 204.59649105 339.90465662 224.69281464 C339.89572068 241.91354573 339.89727537 259.13424986 339.90649414 276.35498047 C339.91721147 296.3842235 339.92140321 316.41345053 339.91526961 336.44269603 C339.91463256 338.58082036 339.91400381 340.71894469 339.91338348 342.85706902 C339.91307493 343.90889276 339.91276638 344.96071651 339.91244848 346.0444137 C339.91072603 353.434938 339.9136269 360.82545209 339.91834259 368.21597481 C339.92396764 377.22920961 339.92240086 386.24240961 339.9117811 395.25564045 C339.90654641 399.84890879 339.90442988 404.44211921 339.91107941 409.03538704 C339.91708679 413.24898685 339.91368572 417.46247566 339.9031243 421.67606556 C339.90091042 423.19132085 339.90198063 424.70658573 339.90687588 426.22183473 C339.94505472 439.03328482 339.06727555 451.74173426 335.52075195 464.11791992 C335.20424683 465.23191162 335.20424683 465.23191162 334.88134766 466.3684082 C325.16360091 498.80656882 300.8846361 525.56157081 271.45825195 541.55541992 C259.50131429 547.83235255 244.95813593 553.35058234 231.28791046 553.377141 C230.22005326 553.38159884 229.15219605 553.38605669 228.05197954 553.39064962 C226.88478113 553.39046525 225.71758271 553.39028089 224.51501465 553.39009094 C223.27034786 553.39376763 222.02568107 553.39744432 220.7432971 553.40123242 C217.29079694 553.41034361 213.83834425 553.41496552 210.3858366 553.41762173 C206.66102552 553.42153163 202.93622811 553.43110954 199.21142578 553.43983459 C190.21670896 553.45958042 181.22199104 553.46966317 172.22725797 553.47856238 C167.98812872 553.48294867 163.74900071 553.48831463 159.50987244 553.49355125 C145.412023 553.51056223 131.31417434 553.52505521 117.21631622 553.5323 C113.55933125 553.53420979 109.90234628 553.53613014 106.24536133 553.53808594 C105.33647075 553.53856968 104.42758017 553.53905342 103.49114746 553.53955182 C88.77592797 553.5478477 74.06078988 553.57317774 59.34560591 553.60566662 C44.22694731 553.63877326 29.10833002 553.65675204 13.98963499 553.65994424 C5.50549489 553.66210608 -2.97852653 553.67080681 -11.46263123 553.69640541 C-18.68987773 553.71816179 -25.9169767 553.72613867 -33.14425224 553.71643863 C-36.82794758 553.71190806 -40.51133885 553.71370692 -44.19499207 553.73320007 C-48.19942004 553.75420649 -52.20318007 553.74380119 -56.2076416 553.73066711 C-57.35699424 553.74163636 -58.50634688 553.75260561 -59.69052839 553.76390725 C-75.55879626 553.63883928 -89.62781474 547.51534276 -101.12768555 536.67260742 C-113.46201684 523.21303889 -114.65676949 507.30446243 -114.62167358 490.00234985 C-114.62541395 488.25080621 -114.63001701 486.49926424 -114.63540423 484.74772489 C-114.64760247 479.95184095 -114.6473775 475.15602693 -114.64501548 470.36013103 C-114.64460649 465.18058756 -114.65565446 460.00106627 -114.66513062 454.8215332 C-114.68172558 444.67878457 -114.68723954 434.53605918 -114.68835537 424.3932981 C-114.68930682 416.14332306 -114.69342199 407.89335565 -114.69975662 399.64338303 C-114.7173671 376.22998678 -114.72659612 352.81660886 -114.72509567 329.40320595 C-114.72501576 328.14165433 -114.72493585 326.88010272 -114.72485352 325.58032227 C-114.72477175 324.3172216 -114.72468999 323.05412093 -114.72460575 321.75274448 C-114.72379353 301.30030361 -114.74291564 280.8479365 -114.77113025 260.39551695 C-114.79990218 239.37234784 -114.81366808 218.34921465 -114.8119427 197.32602537 C-114.81128015 185.53242908 -114.81671269 173.73891007 -114.8382988 161.94533157 C-114.85656764 151.90001493 -114.86081148 141.85481056 -114.84727995 131.80948444 C-114.84077823 126.69103513 -114.84053114 121.57280086 -114.85798645 116.45437241 C-114.8738475 111.75475362 -114.87072236 107.05551802 -114.85341819 102.35590784 C-114.85037662 100.66945384 -114.85387119 98.98297029 -114.86513834 97.29655118 C-115.02517852 71.60969537 -108.60520559 46.71209852 -90.69018555 27.49291992 C-65.00648044 2.75410028 -33.99574055 -0.08593409 0 0 Z M-62.10424805 60.99291992 C-67.62209996 67.56301336 -71.48157649 76.03946128 -71.47729588 84.686306 C-71.47928692 85.57556927 -71.48127797 86.46483255 -71.48332936 87.3810432 C-71.48041651 88.35380175 -71.47750367 89.3265603 -71.47450256 90.32879639 C-71.47535699 91.36535283 -71.47621141 92.40190928 -71.47709173 93.46987653 C-71.47874286 96.95381205 -71.47323111 100.43769975 -71.46777344 103.92163086 C-71.46749146 106.4148 -71.4676495 108.90796922 -71.46821594 111.40113831 C-71.46844389 116.7742347 -71.46560183 122.14731613 -71.4599781 127.52040863 C-71.45185243 135.28900507 -71.44924679 143.05759564 -71.44799011 150.82619587 C-71.44580128 163.43011372 -71.43914574 176.03402511 -71.4296875 188.63793945 C-71.42050904 200.88175423 -71.41343033 213.12556725 -71.40917969 225.36938477 C-71.40891696 226.12404375 -71.40865424 226.87870274 -71.40838356 227.65623018 C-71.40707852 231.44211766 -71.40581481 235.22800515 -71.40457165 239.01389265 C-71.39420428 270.42357311 -71.37651621 301.83324553 -71.35424805 333.24291992 C-69.58765754 333.08939873 -67.82124113 332.93387324 -66.05490112 332.77749634 C-65.07120985 332.69110209 -64.08751858 332.60470783 -63.07401848 332.51569557 C-60.17066253 332.22450746 -57.3895288 331.74755689 -54.54956055 331.07885742 C-53.56536133 330.84787354 -52.58116211 330.61688965 -51.56713867 330.37890625 C-50.54813477 330.12778076 -49.52913086 329.87665527 -48.47924805 329.61791992 C-47.39063477 329.35068115 -46.30202148 329.08344238 -45.18041992 328.80810547 C0.19697013 317.39430277 40.04455361 294.17223461 75.64575195 264.24291992 C76.69639666 263.37947249 77.7471849 262.51619971 78.7980957 261.65307617 C97.21725864 246.36487657 112.52172266 229.13566075 126.51196289 209.80200195 C127.8703345 207.93409474 129.25189459 206.08447319 130.64575195 204.24291992 C129.26715268 201.04928039 127.76466367 199.24930224 125.08325195 197.05541992 C121.95115605 194.41041308 119.01979108 191.66676909 116.14575195 188.74291992 C113.29575177 185.8535415 110.40064562 183.08806898 107.33325195 180.43041992 C106.68743164 179.86967773 106.04161133 179.30893555 105.3762207 178.73120117 C103.97019457 177.52195522 102.5587715 176.31898654 101.14575195 175.11791992 C99.64575195 173.24291992 99.64575195 173.24291992 99.20825195 170.61791992 C99.35262695 169.83416992 99.49700195 169.05041992 99.64575195 168.24291992 C102.39353946 166.41106158 103.54619375 165.89461748 106.63427734 165.31665039 C107.84447289 165.08486839 107.84447289 165.08486839 109.07911682 164.84840393 C109.95833298 164.68726608 110.83754913 164.52612823 111.7434082 164.36010742 C112.66826523 164.18491074 113.59312225 164.00971405 114.54600525 163.82920837 C117.59892365 163.25239451 120.65355214 162.68521709 123.70825195 162.11791992 C125.83793908 161.71716068 127.96749505 161.31570392 130.09692383 160.91357422 C134.4734302 160.08794287 138.85057125 159.26581035 143.22827148 158.4465332 C151.83419065 156.8346872 160.4346536 155.19444965 169.03497314 153.55303955 C171.63526371 153.057419 174.23591117 152.563714 176.83666992 152.07055664 C184.86626819 150.54663389 192.89134172 149.00425746 200.9074707 147.41088867 C202.35211579 147.12524271 203.79677682 146.83967734 205.24145508 146.55419922 C207.87847709 146.03298235 210.51332646 145.50341555 213.14770508 144.96875 C224.49126837 142.72386703 224.49126837 142.72386703 229.64575195 143.24291992 C232.20151805 145.79868602 231.89377843 147.46323751 231.92338562 150.94863892 C231.91744133 152.16938614 231.91744133 152.16938614 231.91137695 153.41479492 C231.91406082 154.28784271 231.91674469 155.1608905 231.91950989 156.06039429 C231.92354873 159.03803754 231.91050357 162.01531349 231.89575195 164.99291992 C231.89364716 166.02737244 231.89154236 167.06182495 231.88937378 168.12762451 C231.83714935 190.54691774 231.28076622 212.95704964 230.70825195 235.36791992 C230.67563011 236.65849556 230.67563011 236.65849556 230.64234924 237.97514343 C230.51487727 243.00938156 230.38313973 248.04347835 230.24524498 253.07744217 C230.20321799 254.61959118 230.16203442 256.16176347 230.12180519 257.70396042 C229.36318342 286.52548845 229.36318342 286.52548845 227.64575195 288.24291992 C225.53759766 288.72924805 225.53759766 288.72924805 222.64575195 288.24291992 C219.94490208 286.26242684 217.69354728 283.87067775 215.3762207 281.46166992 C214.69521805 280.77359253 214.01421539 280.08551514 213.31257629 279.37658691 C211.1407905 277.17681921 208.98703125 274.96030687 206.83325195 272.74291992 C205.36370366 271.24829401 203.89301356 269.75478982 202.42114258 268.26245117 C198.81596885 264.60215722 195.22686672 260.92674957 191.64575195 257.24291992 C187.58845309 260.61255318 183.7970376 263.98256733 180.3371582 267.98120117 C175.61002162 273.33141022 170.64200926 278.39488568 165.58325195 283.43041992 C164.73698242 284.28055664 163.89071289 285.13069336 163.01879883 286.0065918 C158.05590333 290.96183441 152.9715758 295.68281861 147.64575195 300.24291992 C146.48903976 301.26436297 145.33405007 302.28776042 144.1809082 303.31323242 C135.00134563 311.41377305 125.48448084 318.95982887 115.64575195 326.24291992 C115.03876465 326.6926416 114.43177734 327.14236328 113.80639648 327.60571289 C93.95893432 342.2269535 72.88566991 354.62806399 50.64575195 365.24291992 C49.90695801 365.59708984 49.16816406 365.95125977 48.40698242 366.31616211 C22.25388538 378.74807272 -5.15720261 387.28806402 -33.41674805 393.43041992 C-34.97292847 393.76916138 -34.97292847 393.76916138 -36.56054688 394.11474609 C-44.28338605 395.73252289 -52.04458021 397.04823223 -59.82861328 398.33398438 C-60.93905754 398.51819191 -62.0495018 398.70239944 -63.19359589 398.89218903 C-65.91367286 399.34328739 -68.63389198 399.7935082 -71.35424805 400.24291992 C-71.44684749 413.99446279 -71.51796216 427.74593172 -71.56149673 441.49772263 C-71.58238907 447.88295234 -71.61073732 454.26796906 -71.65600586 460.65307617 C-71.69940403 466.81277821 -71.72337275 472.97227513 -71.73375702 479.13211823 C-71.74115917 481.4845223 -71.75561345 483.8369149 -71.77716827 486.18923187 C-71.80612132 489.47918637 -71.81020733 492.76828863 -71.80834961 496.05834961 C-71.82273071 497.03514679 -71.83711182 498.01194397 -71.85192871 499.01834106 C-71.8769517 504.26794458 -71.8769517 504.26794458 -69.5133667 508.81695557 C-66.12789187 511.05285234 -63.44070573 511.36904789 -59.48514271 511.377141 C-57.97048159 511.38382776 -57.97048159 511.38382776 -56.42522126 511.39064962 C-54.75630099 511.39037307 -54.75630099 511.39037307 -53.05366516 511.39009094 C-51.28428322 511.39560597 -51.28428322 511.39560597 -49.4791562 511.40123242 C-46.19895981 511.41036135 -42.91879284 511.41496947 -39.63858593 511.41762173 C-36.10250437 511.42152475 -32.5664373 511.43110353 -29.03036499 511.43983459 C-20.48418928 511.45960575 -11.93801238 511.46966898 -3.39181951 511.47856238 C0.63623155 511.48294683 4.66428129 511.48831348 8.69233131 511.49355125 C22.09095709 511.51056909 35.48958205 511.5250598 48.88821697 511.5323 C52.36607044 511.53420981 55.8439239 511.53613015 59.32177734 511.53808594 C60.18615277 511.53856968 61.0505282 511.53905342 61.94109682 511.53955182 C75.92046817 511.547839 89.89975358 511.57315119 103.87908747 511.60566662 C118.24397905 511.63880504 132.6088271 511.65675513 146.97375709 511.65994424 C155.03380997 511.66210377 163.09373777 511.67076969 171.15375328 511.69640541 C178.02377002 511.7182058 184.89363134 511.72611751 191.76367875 511.71643863 C195.26343882 511.71191988 198.76287888 511.71363639 202.26259422 511.73320007 C219.31983532 511.81295485 235.56123993 511.82952891 250.95825195 503.49291992 C251.61720459 503.147854 252.27615723 502.80278809 252.95507812 502.44726562 C272.52156878 491.94264755 286.30055108 476.24788236 293.64575195 455.24291992 C296.57115741 445.48383632 297.07447936 436.06148583 297.02670288 425.95877075 C297.03016639 424.34798933 297.03493558 422.73721028 297.04088461 421.12643611 C297.05332828 416.73404418 297.04725478 412.34184952 297.03792596 407.94945717 C297.03110876 403.19966466 297.04162966 398.44990491 297.04986572 393.70011902 C297.06317501 384.41036152 297.06033838 375.12067691 297.0516278 365.8309166 C297.04484305 358.28169992 297.04393795 350.73250362 297.04719925 343.18328476 C297.04765895 342.10745167 297.04811865 341.03161857 297.04859228 339.92318448 C297.04955148 337.73749153 297.05052412 335.55179859 297.05151005 333.36610566 C297.06005509 312.89423448 297.05024245 292.42240366 297.03410895 271.9505391 C297.0206951 254.3855443 297.02304437 236.82060897 297.03686523 219.25561523 C297.05291693 198.8459484 297.05924327 178.43631685 297.05002844 158.02664459 C297.04907281 155.85098323 297.0481297 153.67532186 297.04719925 151.49966049 C297.04650501 149.89403189 297.04650501 149.89403189 297.04579674 148.25596634 C297.04320648 140.71293424 297.0475784 133.16992454 297.05463791 125.6268959 C297.06304802 116.43913843 297.06078255 107.25145787 297.04479568 98.06370921 C297.03690818 93.37624182 297.03382972 88.68890269 297.04374313 84.00143623 C297.05267985 79.71098485 297.04777413 75.42078071 297.03181048 71.13035177 C297.02845849 69.57813865 297.03016615 68.02590466 297.03743784 66.47370495 C297.04656699 64.36320635 297.03719796 62.25355345 297.02327538 60.14309883 C297.02278832 58.97111415 297.02230126 57.79912947 297.02179945 56.5916301 C296.55931776 52.47322179 295.6160299 49.89500402 293.64575195 46.24291992 C287.8015671 41.98194047 278.87834365 42.80739034 272.00949097 42.82400513 C270.75873406 42.8152416 269.50797714 42.80647808 268.21931851 42.79744899 C264.76829103 42.77371487 261.31744851 42.76836634 257.86634922 42.76620293 C254.13607258 42.76063383 250.40589366 42.73791777 246.67567444 42.717453 C239.3746403 42.6801789 232.07364432 42.65893426 224.77253465 42.64350052 C218.83368457 42.63066086 212.89487873 42.6120269 206.9560585 42.58929062 C206.10957285 42.58605556 205.26308721 42.5828205 204.39095048 42.57948741 C202.67105121 42.57289053 200.95115198 42.56628089 199.2312528 42.55965863 C183.11132526 42.49828007 166.99138828 42.45515524 150.87138869 42.41825436 C137.06335588 42.38621543 123.2554512 42.3384102 109.44750977 42.27905273 C93.39308703 42.21004462 77.33867763 42.1510366 61.28416359 42.10767639 C59.56888903 42.10301575 57.85361449 42.09834188 56.13834 42.09365463 C55.29452372 42.09135335 54.45070743 42.08905207 53.58132096 42.08668105 C47.65810516 42.06984297 41.73494248 42.04593694 35.81176376 42.01922989 C28.58068706 41.9868131 21.34967476 41.96539976 14.11852793 41.95770641 C10.43459089 41.95351628 6.75083691 41.94463008 3.06696129 41.92230415 C-21.3787344 41.77987327 -44.12907355 42.08999448 -62.10424805 60.99291992 Z"/>
</svg>